<svg width="126" height="70" viewBox="0 0 126 70" fill="none" xmlns="http://www.w3.org/2000/svg">
<g filter="url(#filter0_d_1_35)">
<rect width="95.783" height="39.3061" rx="10" transform="matrix(0.999984 -0.00569461 0.00555926 0.999985 13.9446 10.4887)" fill="#BCEBD9"/>
<rect x="0.502772" y="0.497145" width="94.783" height="38.3061" rx="9.5" transform="matrix(0.999984 -0.00569461 0.00555926 0.999985 13.9418 10.4915)" stroke="#3E9B76"/>
</g>
<mask id="path-3-outside-1_1_35" maskUnits="userSpaceOnUse" x="33.9446" y="20.4886" width="57" height="16" fill="black">
<rect fill="white" x="33.9446" y="20.4886" width="57" height="16"/>
<path d="M38.0365 34.5066C37.0405 34.5066 36.3145 34.3206 35.8585 33.9486C35.4145 33.5766 35.1925 32.9046 35.1925 31.9326L35.4445 27.9006V24.0306C35.4445 23.7306 35.5045 23.5386 35.6245 23.4546C35.7445 23.3586 36.0085 23.3106 36.4165 23.3106L37.6405 23.3466C39.1765 23.4306 40.6765 23.4726 42.1405 23.4726C42.4525 23.4726 42.6985 23.5626 42.8785 23.7426C43.0705 23.9226 43.1665 24.1686 43.1665 24.4806C43.1665 24.5406 43.1485 24.5886 43.1125 24.6246C43.0765 24.6606 43.0345 24.6726 42.9865 24.6606L42.1405 24.3366L36.5065 24.4806C36.4345 24.4806 36.3925 24.4746 36.3805 24.4626C36.4285 24.5586 36.4525 24.6426 36.4525 24.7146V27.9006C37.0045 27.9366 37.5385 27.9546 38.0545 27.9546C38.9425 27.9546 39.9205 27.9126 40.9885 27.8286C41.0965 27.8166 41.2585 27.8046 41.4745 27.7926C41.7025 27.7686 41.8285 27.7686 41.8525 27.7926C41.9245 27.8646 41.9785 27.9306 42.0145 27.9906C42.0505 28.0506 42.0745 28.1346 42.0865 28.2426C42.1225 28.5066 41.7205 28.6806 40.8805 28.7646C40.0525 28.8486 38.9425 28.9146 37.5505 28.9626C37.0825 28.9626 36.6925 28.9746 36.3805 28.9986C36.2365 29.3586 36.1645 29.9346 36.1645 30.7266L36.1825 31.7886V32.9586C36.3745 33.1146 36.5845 33.2166 36.8125 33.2646C37.0405 33.3126 37.4125 33.3366 37.9285 33.3366C38.4685 33.3366 38.9965 33.3066 39.5125 33.2466C40.0405 33.1866 40.3525 33.1506 40.4485 33.1386C41.4565 33.0186 42.2065 32.9586 42.6985 32.9586C42.9865 32.9586 43.1845 32.9886 43.2925 33.0486C43.4125 33.0966 43.4725 33.1866 43.4725 33.3186C43.4725 34.1106 41.8645 34.5066 38.6485 34.5066H38.0365ZM46.3785 30.3306C46.3785 29.9826 46.7025 29.7186 47.3505 29.5386C48.0105 29.3586 48.9465 29.2206 50.1585 29.1246C50.2905 29.1126 50.4765 29.1066 50.7165 29.1066C51.1965 29.1066 51.5625 29.1546 51.8145 29.2506C52.0665 29.3466 52.1925 29.4606 52.1925 29.5926C52.1925 29.8326 52.0785 29.9526 51.8505 29.9526C51.6705 29.9526 51.4785 29.9226 51.2745 29.8626C50.9865 29.7906 50.6985 29.7546 50.4105 29.7546C49.9545 29.7546 49.2825 29.8506 48.3945 30.0426C47.9505 30.1386 47.5785 30.2106 47.2785 30.2586C46.9785 30.3066 46.6785 30.3306 46.3785 30.3306ZM67.0605 34.5066C66.8805 34.5066 66.7725 34.4586 66.7365 34.3626C66.7005 34.2546 66.6825 34.0926 66.6825 33.8766C66.6945 33.7926 66.7005 33.6966 66.7005 33.5886C66.7005 33.4686 66.7065 33.3786 66.7185 33.3186C66.7905 32.7426 66.8265 32.1966 66.8265 31.6806C66.8265 30.5406 66.6345 29.6526 66.2505 29.0166C65.8665 28.3686 65.2605 28.0446 64.4325 28.0446C63.9765 28.0446 63.5205 28.1586 63.0645 28.3866C62.6205 28.6146 62.2545 28.8966 61.9665 29.2326C61.6905 29.5686 61.5525 29.8746 61.5525 30.1506C61.6125 30.4986 61.7205 30.9246 61.8765 31.4286C61.8885 31.4886 61.9365 31.6746 62.0205 31.9866C62.1165 32.2986 62.1645 32.5806 62.1645 32.8326L62.1825 33.1746C62.1825 33.3666 62.0865 33.4626 61.8945 33.4626C61.6545 33.4626 61.4565 33.3066 61.3005 32.9946C61.1565 32.6826 60.9945 32.1966 60.8145 31.5366C60.6345 30.8886 60.4605 30.3546 60.2925 29.9346C60.1245 29.5146 59.8965 29.1546 59.6085 28.8546C59.3205 28.5546 58.9545 28.4046 58.5105 28.4046C57.8985 28.4046 57.4185 28.6146 57.0705 29.0346C56.7345 29.4546 56.5665 29.9706 56.5665 30.5826C56.5665 30.9906 56.6025 31.5306 56.6745 32.2026C56.7345 32.7066 56.7645 33.1386 56.7645 33.4986C56.7645 33.7146 56.7405 33.8766 56.6925 33.9846C56.6445 34.0926 56.5305 34.1466 56.3505 34.1466C56.1105 34.1466 55.9425 34.0686 55.8465 33.9126C55.7505 33.7446 55.7025 33.4926 55.7025 33.1566C55.7025 32.4966 55.6665 31.6986 55.5945 30.7626C55.5825 30.6426 55.5585 30.3366 55.5225 29.8446C55.4865 29.3406 55.4805 28.8366 55.5045 28.3326L55.5225 27.7386C55.5945 27.6666 55.6785 27.6306 55.7745 27.6306C55.9065 27.6306 56.0145 27.7146 56.0985 27.8826C56.1945 28.0386 56.2425 28.2786 56.2425 28.6026C56.4225 28.2906 56.6865 28.0086 57.0345 27.7566C57.3825 27.5046 57.7485 27.3786 58.1325 27.3786C58.7925 27.3786 59.3385 27.5166 59.7705 27.7926C60.2145 28.0566 60.6165 28.4886 60.9765 29.0886C61.3125 28.4766 61.8165 27.9546 62.4885 27.5226C63.1725 27.0906 63.8745 26.8746 64.5945 26.8746C65.3385 26.8746 65.9565 27.1566 66.4485 27.7206C66.9525 28.2846 67.3185 28.9626 67.5465 29.7546C67.7865 30.5466 67.9065 31.2786 67.9065 31.9506C67.9065 32.5506 67.8525 33.1266 67.7445 33.6786C67.6485 34.2306 67.4205 34.5066 67.0605 34.5066ZM75.7791 34.4886C74.5311 34.4886 73.4451 34.2726 72.5211 33.8406C71.6091 33.3966 71.1531 32.6226 71.1531 31.5186C71.1531 31.1226 71.2731 30.7386 71.5131 30.3666C71.7531 29.9946 72.1071 29.6946 72.5751 29.4666C73.0431 29.2266 73.6131 29.1066 74.2851 29.1066C74.8011 29.1066 75.2391 29.1306 75.5991 29.1786C75.9591 29.2266 76.3731 29.3586 76.8411 29.5746C77.3091 29.7906 77.7951 30.1326 78.2991 30.6006C78.1071 29.7726 77.8191 29.0466 77.4351 28.4226C77.0511 27.7986 76.6191 27.3186 76.1391 26.9826C75.6711 26.6346 75.2091 26.4606 74.7531 26.4606C74.5371 26.4606 74.3331 26.5026 74.1411 26.5866C73.9611 26.6586 73.7391 26.7666 73.4751 26.9106C73.1751 27.1026 72.9531 27.1986 72.8091 27.1986C72.7491 27.1986 72.6951 27.1806 72.6471 27.1446C72.6111 27.0966 72.5931 27.0426 72.5931 26.9826C72.5931 26.5026 72.8031 26.1306 73.2231 25.8666C73.6551 25.6026 74.1771 25.4826 74.7891 25.5066C75.6291 25.5546 76.3971 25.9146 77.0931 26.5866C77.7891 27.2466 78.3351 28.0686 78.7311 29.0526C79.1391 30.0366 79.3431 31.0026 79.3431 31.9506C79.3431 32.1066 79.3311 32.3286 79.3071 32.6166L78.7311 32.5806C78.2751 31.6566 77.6871 31.0026 76.9671 30.6186C76.2591 30.2226 75.5451 30.0246 74.8251 30.0246C73.9011 30.0246 73.2411 30.1626 72.8451 30.4386C72.4491 30.7146 72.2511 31.1166 72.2511 31.6446C72.2511 32.1966 72.5271 32.6406 73.0791 32.9766C73.6311 33.3126 74.3391 33.4806 75.2031 33.4806C75.6831 33.4806 76.0671 33.4566 76.3551 33.4086C76.6431 33.3486 76.9431 33.2706 77.2551 33.1746C77.5071 33.0906 77.7291 33.0306 77.9211 32.9946C78.1131 32.9586 78.3591 32.9406 78.6591 32.9406C78.9951 32.9406 79.2051 32.9646 79.2891 33.0126C79.3851 33.0606 79.4331 33.1686 79.4331 33.3366C79.4331 33.4566 79.1871 33.6066 78.6951 33.7866C78.2031 33.9666 77.6511 34.1286 77.0391 34.2726C76.4271 34.4166 76.0071 34.4886 75.7791 34.4886ZM83.8798 34.5066C83.6038 34.5066 83.3818 34.1046 83.2138 33.3006C83.0458 32.4846 82.9378 31.7826 82.8898 31.1946C82.8418 30.6066 82.7758 29.6766 82.6918 28.4046C82.6798 28.2006 82.6738 27.9366 82.6738 27.6126C82.6738 27.2046 82.7038 26.9226 82.7638 26.7666C82.8358 26.6106 82.9498 26.5326 83.1058 26.5326C83.2378 26.5326 83.3398 26.5626 83.4118 26.6226C83.4958 26.6706 83.5678 26.7546 83.6278 26.8746L83.6098 27.5946C83.6098 28.3626 83.6458 29.0886 83.7178 29.7726C83.8018 30.4566 83.9278 31.3746 84.0958 32.5266C84.1918 33.0306 84.2578 33.4446 84.2938 33.7686C84.3178 33.9366 84.2878 34.1046 84.2038 34.2726C84.1198 34.4286 84.0118 34.5066 83.8798 34.5066ZM83.4298 24.6066C83.1658 24.6066 82.9678 24.5046 82.8358 24.3006C82.7158 24.0966 82.6558 23.8446 82.6558 23.5446C82.6558 23.4126 82.6618 23.3166 82.6738 23.2566C82.6618 23.0646 82.7698 22.9686 82.9978 22.9686C83.1658 22.9686 83.3338 23.0106 83.5018 23.0946C83.6818 23.1666 83.7358 23.2206 83.6638 23.2566C83.7838 23.5686 83.8438 23.8146 83.8438 23.9946C83.8438 24.1506 83.8078 24.2766 83.7358 24.3726C83.6638 24.4566 83.5618 24.5346 83.4298 24.6066ZM88.6982 34.3626C88.4342 33.0546 88.2302 31.5066 88.0862 29.7186C87.9542 27.9186 87.8882 26.1786 87.8882 24.4986C87.8882 23.6586 87.9062 22.9146 87.9422 22.2666C87.9422 22.1106 88.0622 22.0326 88.3022 22.0326C88.4942 22.0326 88.6142 22.0806 88.6622 22.1766C88.7222 22.2726 88.7522 22.4226 88.7522 22.6266C88.7522 24.5706 88.7882 26.2326 88.8602 27.6126C88.9322 28.9806 89.0282 30.4566 89.1482 32.0406C89.2202 33.0606 89.2682 33.7506 89.2922 34.1106C89.3042 34.3026 89.2022 34.3986 88.9862 34.3986C88.9142 34.3986 88.8182 34.3866 88.6982 34.3626Z"/>
</mask>
<path d="M38.0365 34.5066C37.0405 34.5066 36.3145 34.3206 35.8585 33.9486C35.4145 33.5766 35.1925 32.9046 35.1925 31.9326L35.4445 27.9006V24.0306C35.4445 23.7306 35.5045 23.5386 35.6245 23.4546C35.7445 23.3586 36.0085 23.3106 36.4165 23.3106L37.6405 23.3466C39.1765 23.4306 40.6765 23.4726 42.1405 23.4726C42.4525 23.4726 42.6985 23.5626 42.8785 23.7426C43.0705 23.9226 43.1665 24.1686 43.1665 24.4806C43.1665 24.5406 43.1485 24.5886 43.1125 24.6246C43.0765 24.6606 43.0345 24.6726 42.9865 24.6606L42.1405 24.3366L36.5065 24.4806C36.4345 24.4806 36.3925 24.4746 36.3805 24.4626C36.4285 24.5586 36.4525 24.6426 36.4525 24.7146V27.9006C37.0045 27.9366 37.5385 27.9546 38.0545 27.9546C38.9425 27.9546 39.9205 27.9126 40.9885 27.8286C41.0965 27.8166 41.2585 27.8046 41.4745 27.7926C41.7025 27.7686 41.8285 27.7686 41.8525 27.7926C41.9245 27.8646 41.9785 27.9306 42.0145 27.9906C42.0505 28.0506 42.0745 28.1346 42.0865 28.2426C42.1225 28.5066 41.7205 28.6806 40.8805 28.7646C40.0525 28.8486 38.9425 28.9146 37.5505 28.9626C37.0825 28.9626 36.6925 28.9746 36.3805 28.9986C36.2365 29.3586 36.1645 29.9346 36.1645 30.7266L36.1825 31.7886V32.9586C36.3745 33.1146 36.5845 33.2166 36.8125 33.2646C37.0405 33.3126 37.4125 33.3366 37.9285 33.3366C38.4685 33.3366 38.9965 33.3066 39.5125 33.2466C40.0405 33.1866 40.3525 33.1506 40.4485 33.1386C41.4565 33.0186 42.2065 32.9586 42.6985 32.9586C42.9865 32.9586 43.1845 32.9886 43.2925 33.0486C43.4125 33.0966 43.4725 33.1866 43.4725 33.3186C43.4725 34.1106 41.8645 34.5066 38.6485 34.5066H38.0365ZM46.3785 30.3306C46.3785 29.9826 46.7025 29.7186 47.3505 29.5386C48.0105 29.3586 48.9465 29.2206 50.1585 29.1246C50.2905 29.1126 50.4765 29.1066 50.7165 29.1066C51.1965 29.1066 51.5625 29.1546 51.8145 29.2506C52.0665 29.3466 52.1925 29.4606 52.1925 29.5926C52.1925 29.8326 52.0785 29.9526 51.8505 29.9526C51.6705 29.9526 51.4785 29.9226 51.2745 29.8626C50.9865 29.7906 50.6985 29.7546 50.4105 29.7546C49.9545 29.7546 49.2825 29.8506 48.3945 30.0426C47.9505 30.1386 47.5785 30.2106 47.2785 30.2586C46.9785 30.3066 46.6785 30.3306 46.3785 30.3306ZM67.0605 34.5066C66.8805 34.5066 66.7725 34.4586 66.7365 34.3626C66.7005 34.2546 66.6825 34.0926 66.6825 33.8766C66.6945 33.7926 66.7005 33.6966 66.7005 33.5886C66.7005 33.4686 66.7065 33.3786 66.7185 33.3186C66.7905 32.7426 66.8265 32.1966 66.8265 31.6806C66.8265 30.5406 66.6345 29.6526 66.2505 29.0166C65.8665 28.3686 65.2605 28.0446 64.4325 28.0446C63.9765 28.0446 63.5205 28.1586 63.0645 28.3866C62.6205 28.6146 62.2545 28.8966 61.9665 29.2326C61.6905 29.5686 61.5525 29.8746 61.5525 30.1506C61.6125 30.4986 61.7205 30.9246 61.8765 31.4286C61.8885 31.4886 61.9365 31.6746 62.0205 31.9866C62.1165 32.2986 62.1645 32.5806 62.1645 32.8326L62.1825 33.1746C62.1825 33.3666 62.0865 33.4626 61.8945 33.4626C61.6545 33.4626 61.4565 33.3066 61.3005 32.9946C61.1565 32.6826 60.9945 32.1966 60.8145 31.5366C60.6345 30.8886 60.4605 30.3546 60.2925 29.9346C60.1245 29.5146 59.8965 29.1546 59.6085 28.8546C59.3205 28.5546 58.9545 28.4046 58.5105 28.4046C57.8985 28.4046 57.4185 28.6146 57.0705 29.0346C56.7345 29.4546 56.5665 29.9706 56.5665 30.5826C56.5665 30.9906 56.6025 31.5306 56.6745 32.2026C56.7345 32.7066 56.7645 33.1386 56.7645 33.4986C56.7645 33.7146 56.7405 33.8766 56.6925 33.9846C56.6445 34.0926 56.5305 34.1466 56.3505 34.1466C56.1105 34.1466 55.9425 34.0686 55.8465 33.9126C55.7505 33.7446 55.7025 33.4926 55.7025 33.1566C55.7025 32.4966 55.6665 31.6986 55.5945 30.7626C55.5825 30.6426 55.5585 30.3366 55.5225 29.8446C55.4865 29.3406 55.4805 28.8366 55.5045 28.3326L55.5225 27.7386C55.5945 27.6666 55.6785 27.6306 55.7745 27.6306C55.9065 27.6306 56.0145 27.7146 56.0985 27.8826C56.1945 28.0386 56.2425 28.2786 56.2425 28.6026C56.4225 28.2906 56.6865 28.0086 57.0345 27.7566C57.3825 27.5046 57.7485 27.3786 58.1325 27.3786C58.7925 27.3786 59.3385 27.5166 59.7705 27.7926C60.2145 28.0566 60.6165 28.4886 60.9765 29.0886C61.3125 28.4766 61.8165 27.9546 62.4885 27.5226C63.1725 27.0906 63.8745 26.8746 64.5945 26.8746C65.3385 26.8746 65.9565 27.1566 66.4485 27.7206C66.9525 28.2846 67.3185 28.9626 67.5465 29.7546C67.7865 30.5466 67.9065 31.2786 67.9065 31.9506C67.9065 32.5506 67.8525 33.1266 67.7445 33.6786C67.6485 34.2306 67.4205 34.5066 67.0605 34.5066ZM75.7791 34.4886C74.5311 34.4886 73.4451 34.2726 72.5211 33.8406C71.6091 33.3966 71.1531 32.6226 71.1531 31.5186C71.1531 31.1226 71.2731 30.7386 71.5131 30.3666C71.7531 29.9946 72.1071 29.6946 72.5751 29.4666C73.0431 29.2266 73.6131 29.1066 74.2851 29.1066C74.8011 29.1066 75.2391 29.1306 75.5991 29.1786C75.9591 29.2266 76.3731 29.3586 76.8411 29.5746C77.3091 29.7906 77.7951 30.1326 78.2991 30.6006C78.1071 29.7726 77.8191 29.0466 77.4351 28.4226C77.0511 27.7986 76.6191 27.3186 76.1391 26.9826C75.6711 26.6346 75.2091 26.4606 74.7531 26.4606C74.5371 26.4606 74.3331 26.5026 74.1411 26.5866C73.9611 26.6586 73.7391 26.7666 73.4751 26.9106C73.1751 27.1026 72.9531 27.1986 72.8091 27.1986C72.7491 27.1986 72.6951 27.1806 72.6471 27.1446C72.6111 27.0966 72.5931 27.0426 72.5931 26.9826C72.5931 26.5026 72.8031 26.1306 73.2231 25.8666C73.6551 25.6026 74.1771 25.4826 74.7891 25.5066C75.6291 25.5546 76.3971 25.9146 77.0931 26.5866C77.7891 27.2466 78.3351 28.0686 78.7311 29.0526C79.1391 30.0366 79.3431 31.0026 79.3431 31.9506C79.3431 32.1066 79.3311 32.3286 79.3071 32.6166L78.7311 32.5806C78.2751 31.6566 77.6871 31.0026 76.9671 30.6186C76.2591 30.2226 75.5451 30.0246 74.8251 30.0246C73.9011 30.0246 73.2411 30.1626 72.8451 30.4386C72.4491 30.7146 72.2511 31.1166 72.2511 31.6446C72.2511 32.1966 72.5271 32.6406 73.0791 32.9766C73.6311 33.3126 74.3391 33.4806 75.2031 33.4806C75.6831 33.4806 76.0671 33.4566 76.3551 33.4086C76.6431 33.3486 76.9431 33.2706 77.2551 33.1746C77.5071 33.0906 77.7291 33.0306 77.9211 32.9946C78.1131 32.9586 78.3591 32.9406 78.6591 32.9406C78.9951 32.9406 79.2051 32.9646 79.2891 33.0126C79.3851 33.0606 79.4331 33.1686 79.4331 33.3366C79.4331 33.4566 79.1871 33.6066 78.6951 33.7866C78.2031 33.9666 77.6511 34.1286 77.0391 34.2726C76.4271 34.4166 76.0071 34.4886 75.7791 34.4886ZM83.8798 34.5066C83.6038 34.5066 83.3818 34.1046 83.2138 33.3006C83.0458 32.4846 82.9378 31.7826 82.8898 31.1946C82.8418 30.6066 82.7758 29.6766 82.6918 28.4046C82.6798 28.2006 82.6738 27.9366 82.6738 27.6126C82.6738 27.2046 82.7038 26.9226 82.7638 26.7666C82.8358 26.6106 82.9498 26.5326 83.1058 26.5326C83.2378 26.5326 83.3398 26.5626 83.4118 26.6226C83.4958 26.6706 83.5678 26.7546 83.6278 26.8746L83.6098 27.5946C83.6098 28.3626 83.6458 29.0886 83.7178 29.7726C83.8018 30.4566 83.9278 31.3746 84.0958 32.5266C84.1918 33.0306 84.2578 33.4446 84.2938 33.7686C84.3178 33.9366 84.2878 34.1046 84.2038 34.2726C84.1198 34.4286 84.0118 34.5066 83.8798 34.5066ZM83.4298 24.6066C83.1658 24.6066 82.9678 24.5046 82.8358 24.3006C82.7158 24.0966 82.6558 23.8446 82.6558 23.5446C82.6558 23.4126 82.6618 23.3166 82.6738 23.2566C82.6618 23.0646 82.7698 22.9686 82.9978 22.9686C83.1658 22.9686 83.3338 23.0106 83.5018 23.0946C83.6818 23.1666 83.7358 23.2206 83.6638 23.2566C83.7838 23.5686 83.8438 23.8146 83.8438 23.9946C83.8438 24.1506 83.8078 24.2766 83.7358 24.3726C83.6638 24.4566 83.5618 24.5346 83.4298 24.6066ZM88.6982 34.3626C88.4342 33.0546 88.2302 31.5066 88.0862 29.7186C87.9542 27.9186 87.8882 26.1786 87.8882 24.4986C87.8882 23.6586 87.9062 22.9146 87.9422 22.2666C87.9422 22.1106 88.0622 22.0326 88.3022 22.0326C88.4942 22.0326 88.6142 22.0806 88.6622 22.1766C88.7222 22.2726 88.7522 22.4226 88.7522 22.6266C88.7522 24.5706 88.7882 26.2326 88.8602 27.6126C88.9322 28.9806 89.0282 30.4566 89.1482 32.0406C89.2202 33.0606 89.2682 33.7506 89.2922 34.1106C89.3042 34.3026 89.2022 34.3986 88.9862 34.3986C88.9142 34.3986 88.8182 34.3866 88.6982 34.3626Z" fill="#3E9B76"/>
<path d="M35.8585 33.9486L35.2162 34.7152L35.2264 34.7235L35.8585 33.9486ZM35.1925 31.9326L34.1945 31.8703L34.1925 31.9014V31.9326H35.1925ZM35.4445 27.9006L36.4426 27.963L36.4445 27.9319V27.9006H35.4445ZM35.6245 23.4546L36.198 24.2739L36.2242 24.2555L36.2492 24.2355L35.6245 23.4546ZM36.4165 23.3106L36.4459 22.3111L36.4312 22.3106H36.4165V23.3106ZM37.6405 23.3466L37.6951 22.3481L37.6825 22.3475L37.6699 22.3471L37.6405 23.3466ZM42.8785 23.7426L42.1714 24.4498L42.1828 24.4612L42.1946 24.4722L42.8785 23.7426ZM43.1125 24.6246L42.4054 23.9175L42.4054 23.9175L43.1125 24.6246ZM42.9865 24.6606L42.6289 25.5945L42.6853 25.6161L42.744 25.6308L42.9865 24.6606ZM42.1405 24.3366L42.4982 23.4028L42.3131 23.3319L42.115 23.337L42.1405 24.3366ZM36.5065 24.4806V25.4806H36.5193L36.5321 25.4803L36.5065 24.4806ZM36.3805 24.4626L37.0876 23.7555L35.4861 24.9099L36.3805 24.4626ZM36.4525 27.9006H35.4525V28.8376L36.3874 28.8985L36.4525 27.9006ZM40.9885 27.8286L41.0669 28.8256L41.083 28.8243L41.0989 28.8225L40.9885 27.8286ZM41.4745 27.7926L41.53 28.7911L41.5546 28.7897L41.5792 28.7872L41.4745 27.7926ZM42.0145 27.9906L42.872 27.4762L42.872 27.4761L42.0145 27.9906ZM42.0865 28.2426L41.0926 28.3531L41.094 28.3654L41.0957 28.3778L42.0865 28.2426ZM40.8805 28.7646L40.781 27.7696L40.7796 27.7698L40.8805 28.7646ZM37.5505 28.9626V29.9626H37.5677L37.585 29.9621L37.5505 28.9626ZM36.3805 28.9986L36.3038 28.0016L35.6832 28.0493L35.452 28.6273L36.3805 28.9986ZM36.1645 30.7266H35.1645V30.7351L35.1647 30.7436L36.1645 30.7266ZM36.1825 31.7886H37.1825V31.7802L37.1824 31.7717L36.1825 31.7886ZM36.1825 32.9586H35.1825V33.4346L35.5519 33.7348L36.1825 32.9586ZM36.8125 33.2646L37.0185 32.2861H37.0185L36.8125 33.2646ZM39.5125 33.2466L39.3996 32.253L39.397 32.2533L39.5125 33.2466ZM40.4485 33.1386L40.3303 32.1456L40.3245 32.1464L40.4485 33.1386ZM43.2925 33.0486L42.8069 33.9228L42.8623 33.9536L42.9211 33.9771L43.2925 33.0486ZM38.0365 34.5066V33.5066C37.1252 33.5066 36.6809 33.329 36.4906 33.1738L35.8585 33.9486L35.2264 34.7235C35.9481 35.3123 36.9558 35.5066 38.0365 35.5066V34.5066ZM35.8585 33.9486L36.5007 33.1821C36.3992 33.097 36.1925 32.8033 36.1925 31.9326H35.1925H34.1925C34.1925 33.006 34.4298 34.0563 35.2163 34.7152L35.8585 33.9486ZM35.1925 31.9326L36.1906 31.995L36.4426 27.963L35.4445 27.9006L34.4465 27.8383L34.1945 31.8703L35.1925 31.9326ZM35.4445 27.9006H36.4445V24.0306H35.4445H34.4445V27.9006H35.4445ZM35.4445 24.0306H36.4445C36.4445 23.9372 36.4551 23.9245 36.444 23.9599C36.4323 23.9973 36.376 24.1493 36.198 24.2739L35.6245 23.4546L35.051 22.6354C34.753 22.844 34.6067 23.134 34.535 23.3634C34.464 23.5908 34.4445 23.8241 34.4445 24.0306H35.4445ZM35.6245 23.4546L36.2492 24.2355C36.1745 24.2953 36.1126 24.3205 36.0926 24.328C36.0707 24.3362 36.0673 24.3349 36.0914 24.3305C36.1142 24.3264 36.1522 24.3211 36.2088 24.3171C36.2647 24.3131 36.3335 24.3106 36.4165 24.3106V23.3106V22.3106C36.18 22.3106 35.9466 22.324 35.7336 22.3628C35.5437 22.3973 35.2528 22.4714 34.9998 22.6738L35.6245 23.4546ZM36.4165 23.3106L36.3871 24.3102L37.6111 24.3462L37.6405 23.3466L37.6699 22.3471L36.4459 22.3111L36.4165 23.3106ZM37.6405 23.3466L37.5859 24.3452C39.1392 24.4301 40.6574 24.4726 42.1405 24.4726V23.4726V22.4726C40.6956 22.4726 39.2138 22.4312 37.6951 22.3481L37.6405 23.3466ZM42.1405 23.4726V24.4726C42.2011 24.4726 42.2213 24.4814 42.2154 24.4793C42.2124 24.4782 42.2052 24.4751 42.1958 24.4692C42.1863 24.4632 42.1779 24.4563 42.1714 24.4498L42.8785 23.7426L43.5856 23.0355C43.1774 22.6274 42.6541 22.4726 42.1405 22.4726V23.4726ZM42.8785 23.7426L42.1946 24.4722C42.1895 24.4675 42.1828 24.46 42.1761 24.4501C42.1694 24.4402 42.1652 24.4314 42.1629 24.4257C42.1583 24.4139 42.1665 24.4269 42.1665 24.4806H43.1665H44.1665C44.1665 23.9479 43.9934 23.4171 43.5625 23.0131L42.8785 23.7426ZM43.1665 24.4806H42.1665C42.1665 24.4108 42.1771 24.3162 42.2167 24.2105C42.2575 24.1018 42.3218 24.0012 42.4054 23.9175L43.1125 24.6246L43.8196 25.3318C44.0764 25.075 44.1665 24.7549 44.1665 24.4806H43.1665ZM43.1125 24.6246L42.4054 23.9175C42.4875 23.8354 42.6117 23.747 42.7793 23.6991C42.9484 23.6508 43.1059 23.6597 43.229 23.6905L42.9865 24.6606L42.744 25.6308C43.1447 25.731 43.5441 25.6073 43.8196 25.3318L43.1125 24.6246ZM42.9865 24.6606L43.3442 23.7268L42.4982 23.4028L42.1405 24.3366L41.7829 25.2705L42.6289 25.5945L42.9865 24.6606ZM42.1405 24.3366L42.115 23.337L36.481 23.481L36.5065 24.4806L36.5321 25.4803L42.1661 25.3363L42.1405 24.3366ZM36.5065 24.4806V23.4806C36.4901 23.4806 36.5154 23.4795 36.5624 23.4862C36.5855 23.4895 36.6409 23.4983 36.7114 23.5218C36.7646 23.5396 36.9304 23.5983 37.0876 23.7555L36.3805 24.4626L35.6734 25.1698C35.8366 25.333 36.0121 25.3969 36.0789 25.4192C36.1629 25.4472 36.2356 25.4598 36.2796 25.4661C36.3686 25.4788 36.4509 25.4806 36.5065 25.4806V24.4806ZM36.3805 24.4626L35.4861 24.9099C35.4884 24.9146 35.4813 24.9015 35.473 24.8724C35.4647 24.8433 35.4525 24.7889 35.4525 24.7146H36.4525H37.4525C37.4525 24.43 37.3611 24.1878 37.2749 24.0154L36.3805 24.4626ZM36.4525 24.7146H35.4525V27.9006H36.4525H37.4525V24.7146H36.4525ZM36.4525 27.9006L36.3874 28.8985C36.9596 28.9358 37.5153 28.9546 38.0545 28.9546V27.9546V26.9546C37.5617 26.9546 37.0495 26.9375 36.5176 26.9028L36.4525 27.9006ZM38.0545 27.9546V28.9546C38.9734 28.9546 39.978 28.9112 41.0669 28.8256L40.9885 27.8286L40.9101 26.8317C39.8631 26.9141 38.9117 26.9546 38.0545 26.9546V27.9546ZM40.9885 27.8286L41.0989 28.8225C41.1786 28.8137 41.3182 28.8029 41.53 28.7911L41.4745 27.7926L41.419 26.7942C41.1989 26.8064 41.0145 26.8196 40.8781 26.8348L40.9885 27.8286ZM41.4745 27.7926L41.5792 28.7872C41.6272 28.7821 41.6651 28.7788 41.694 28.7769C41.7083 28.7759 41.7194 28.7753 41.7276 28.775C41.7316 28.7748 41.7346 28.7747 41.7368 28.7747C41.739 28.7746 41.74 28.7746 41.74 28.7746C41.74 28.7746 41.7396 28.7746 41.739 28.7746C41.7383 28.7746 41.7373 28.7746 41.736 28.7746C41.7333 28.7745 41.7289 28.7744 41.7229 28.774C41.7124 28.7734 41.6891 28.7717 41.6574 28.7666C41.629 28.7621 41.5702 28.7512 41.497 28.7246C41.434 28.7017 41.287 28.6414 41.1454 28.4998L41.8525 27.7926L42.5596 27.0855C42.412 26.9379 42.2558 26.8724 42.1805 26.845C42.0949 26.8139 42.0205 26.7992 41.9734 26.7917C41.8796 26.7767 41.7948 26.7746 41.74 26.7746C41.6246 26.7746 41.4954 26.7849 41.3698 26.7981L41.4745 27.7926ZM41.8525 27.7926L41.1454 28.4998C41.1623 28.5166 41.1707 28.5265 41.1731 28.5294C41.1741 28.5307 41.173 28.5294 41.1704 28.5258C41.1678 28.5221 41.1631 28.5152 41.157 28.5051L42.0145 27.9906L42.872 27.4761C42.7796 27.3222 42.6657 27.1917 42.5596 27.0855L41.8525 27.7926ZM42.0145 27.9906L41.157 28.5051C41.1205 28.4442 41.1043 28.3956 41.098 28.3734C41.0915 28.3505 41.0914 28.3418 41.0926 28.3531L42.0865 28.2426L43.0804 28.1322C43.0604 27.9523 43.0116 27.7087 42.872 27.4762L42.0145 27.9906ZM42.0865 28.2426L41.0957 28.3778C41.0818 28.276 41.0877 28.1617 41.1228 28.0463C41.1574 27.9326 41.2122 27.8446 41.264 27.7826C41.3577 27.6704 41.4416 27.6418 41.4148 27.6534C41.3975 27.6609 41.3405 27.6817 41.225 27.7057C41.1131 27.7289 40.9668 27.751 40.781 27.7696L40.8805 28.7646L40.98 29.7597C41.4261 29.7151 41.8623 29.6391 42.2092 29.4889C42.3834 29.4135 42.6136 29.2866 42.7987 29.065C43.0104 28.8117 43.1273 28.4737 43.0773 28.1075L42.0865 28.2426ZM40.8805 28.7646L40.7796 27.7698C39.9834 27.8505 38.8985 27.9156 37.5161 27.9632L37.5505 28.9626L37.585 29.9621C38.9866 29.9137 40.1216 29.8468 40.9814 29.7595L40.8805 28.7646ZM37.5505 28.9626V27.9626C37.0681 27.9626 36.6505 27.9749 36.3038 28.0016L36.3805 28.9986L36.4572 29.9957C36.7346 29.9744 37.0969 29.9626 37.5505 29.9626V28.9626ZM36.3805 28.9986L35.452 28.6273C35.2333 29.1742 35.1645 29.9121 35.1645 30.7266H36.1645H37.1645C37.1645 29.9571 37.2398 29.5431 37.309 29.37L36.3805 28.9986ZM36.1645 30.7266L35.1647 30.7436L35.1827 31.8056L36.1825 31.7886L37.1824 31.7717L37.1644 30.7097L36.1645 30.7266ZM36.1825 31.7886H35.1825V32.9586H36.1825H37.1825V31.7886H36.1825ZM36.1825 32.9586L35.5519 33.7348C35.8595 33.9847 36.2133 34.1604 36.6065 34.2432L36.8125 33.2646L37.0185 32.2861C36.9557 32.2729 36.8895 32.2446 36.8131 32.1825L36.1825 32.9586ZM36.8125 33.2646L36.6065 34.2432C36.9441 34.3143 37.4059 34.3366 37.9285 34.3366V33.3366V32.3366C37.4191 32.3366 37.137 32.311 37.0185 32.2861L36.8125 33.2646ZM37.9285 33.3366V34.3366C38.5056 34.3366 39.0722 34.3046 39.628 34.24L39.5125 33.2466L39.397 32.2533C38.9208 32.3087 38.4314 32.3366 37.9285 32.3366V33.3366ZM39.5125 33.2466L39.6254 34.2403C40.1502 34.1806 40.4695 34.1438 40.5725 34.1309L40.4485 33.1386L40.3245 32.1464C40.2355 32.1575 39.9308 32.1927 39.3996 32.253L39.5125 33.2466ZM40.4485 33.1386L40.5667 34.1316C41.5675 34.0125 42.2687 33.9586 42.6985 33.9586V32.9586V31.9586C42.1443 31.9586 41.3455 32.0248 40.3303 32.1457L40.4485 33.1386ZM42.6985 32.9586V33.9586C42.7536 33.9586 42.7991 33.9601 42.836 33.9624C42.8733 33.9647 42.8984 33.9676 42.9132 33.9699C42.9287 33.9722 42.9269 33.9729 42.9125 33.9686C42.8992 33.9647 42.8598 33.9522 42.8069 33.9228L43.2925 33.0486L43.7782 32.1745C43.5754 32.0618 43.3658 32.0156 43.2128 31.9924C43.048 31.9675 42.8729 31.9586 42.6985 31.9586V32.9586ZM43.2925 33.0486L42.9211 33.9771C42.8306 33.9409 42.6981 33.8608 42.5955 33.7068C42.4939 33.5545 42.4725 33.4062 42.4725 33.3186H43.4725H44.4725C44.4725 33.0991 44.4211 32.8398 44.2596 32.5974C44.097 32.3535 43.8744 32.2044 43.6639 32.1202L43.2925 33.0486ZM43.4725 33.3186H42.4725C42.4725 33.1172 42.5968 33.0193 42.5768 33.0341C42.5293 33.0692 42.3744 33.1532 42.0274 33.2387C41.3442 33.4069 40.2364 33.5066 38.6485 33.5066V34.5066V35.5066C40.2766 35.5066 41.5809 35.4084 42.5056 35.1806C42.9626 35.0681 43.4107 34.9046 43.7652 34.6427C44.1473 34.3604 44.4725 33.9161 44.4725 33.3186H43.4725ZM38.6485 34.5066V33.5066H38.0365V34.5066V35.5066H38.6485V34.5066ZM46.3785 30.3306H45.3785V31.3306H46.3785V30.3306ZM47.3505 29.5386L47.0874 28.5739L47.0829 28.5751L47.3505 29.5386ZM50.1585 29.1246L50.2375 30.1216L50.2491 30.1205L50.1585 29.1246ZM51.8145 29.2506L51.4585 30.1851L51.4585 30.1851L51.8145 29.2506ZM51.2745 29.8626L51.5567 28.9033L51.537 28.8975L51.5171 28.8925L51.2745 29.8626ZM47.2785 30.2586L47.1205 29.2712L47.2785 30.2586ZM46.3785 30.3306H47.3785C47.3785 30.4059 47.3593 30.4849 47.3231 30.5533C47.2894 30.6169 47.255 30.6455 47.2532 30.6469C47.2528 30.6472 47.2764 30.6284 47.3408 30.599C47.4041 30.5701 47.4945 30.5365 47.6182 30.5022L47.3505 29.5386L47.0829 28.5751C46.6974 28.6822 46.3044 28.8401 45.9899 29.0964C45.6467 29.3761 45.3785 29.7949 45.3785 30.3306H46.3785ZM47.3505 29.5386L47.6136 30.5034C48.1842 30.3478 49.0478 30.2158 50.2375 30.1215L50.1585 29.1246L50.0796 28.1278C48.8453 28.2255 47.8368 28.3695 47.0874 28.5739L47.3505 29.5386ZM50.1585 29.1246L50.2491 30.1205C50.3361 30.1126 50.4868 30.1066 50.7165 30.1066V29.1066V28.1066C50.4663 28.1066 50.245 28.1127 50.068 28.1288L50.1585 29.1246ZM50.7165 29.1066V30.1066C51.1546 30.1066 51.3764 30.1538 51.4585 30.1851L51.8145 29.2506L52.1705 28.3162C51.7487 28.1555 51.2385 28.1066 50.7165 28.1066V29.1066ZM51.8145 29.2506L51.4585 30.1851C51.5286 30.2118 51.4942 30.2104 51.4271 30.1497C51.3446 30.075 51.1925 29.8853 51.1925 29.5926H52.1925H53.1925C53.1925 29.168 52.9775 28.8553 52.7689 28.6666C52.5759 28.4919 52.3524 28.3855 52.1705 28.3162L51.8145 29.2506ZM52.1925 29.5926H51.1925C51.1925 29.5709 51.1968 29.3689 51.382 29.1739C51.5764 28.9693 51.7969 28.9526 51.8505 28.9526V29.9526V30.9526C52.1321 30.9526 52.5237 30.876 52.832 30.5514C53.1313 30.2364 53.1925 29.8544 53.1925 29.5926H52.1925ZM51.8505 29.9526V28.9526C51.7815 28.9526 51.6852 28.9411 51.5567 28.9033L51.2745 29.8626L50.9924 30.822C51.2719 30.9042 51.5596 30.9526 51.8505 30.9526V29.9526ZM51.2745 29.8626L51.5171 28.8925C51.1522 28.8013 50.7828 28.7546 50.4105 28.7546V29.7546V30.7546C50.6143 30.7546 50.8209 30.78 51.032 30.8328L51.2745 29.8626ZM50.4105 29.7546V28.7546C49.8439 28.7546 49.0865 28.8699 48.1832 29.0652L48.3945 30.0426L48.6059 31.0201C49.4785 30.8314 50.0652 30.7546 50.4105 30.7546V29.7546ZM48.3945 30.0426L48.1832 29.0652C47.7492 29.1591 47.3963 29.2271 47.1205 29.2712L47.2785 30.2586L47.4365 31.2461C47.7608 31.1942 48.1519 31.1182 48.6059 31.0201L48.3945 30.0426ZM47.2785 30.2586L47.1205 29.2712C46.8721 29.311 46.6249 29.3306 46.3785 29.3306V30.3306V31.3306C46.7321 31.3306 47.0849 31.3023 47.4365 31.2461L47.2785 30.2586ZM66.7365 34.3626L65.7878 34.6789L65.7937 34.6964L65.8002 34.7138L66.7365 34.3626ZM66.6825 33.8766L65.6926 33.7352L65.6825 33.8056V33.8766H66.6825ZM66.7185 33.3186L67.6991 33.5148L67.7063 33.4789L67.7108 33.4427L66.7185 33.3186ZM66.2505 29.0166L65.3902 29.5265L65.3945 29.5335L66.2505 29.0166ZM63.0645 28.3866L62.6173 27.4922L62.6077 27.4971L63.0645 28.3866ZM61.9665 29.2326L61.2073 28.5819L61.2005 28.5898L61.1938 28.5979L61.9665 29.2326ZM61.5525 30.1506H60.5525V30.2362L60.5671 30.3206L61.5525 30.1506ZM61.8765 31.4286L62.8571 31.2325L62.847 31.1821L62.8318 31.133L61.8765 31.4286ZM62.0205 31.9866L61.0549 32.2466L61.0595 32.2638L61.0648 32.2807L62.0205 31.9866ZM62.1645 32.8326H61.1645V32.8589L61.1659 32.8852L62.1645 32.8326ZM62.1825 33.1746H63.1825V33.1483L63.1811 33.1221L62.1825 33.1746ZM61.3005 32.9946L60.3926 33.4137L60.3991 33.4279L60.4061 33.4419L61.3005 32.9946ZM60.8145 31.5366L61.7793 31.2735L61.778 31.269L60.8145 31.5366ZM60.2925 29.9346L61.221 29.5633L60.2925 29.9346ZM59.6085 28.8546L58.8871 29.5472V29.5472L59.6085 28.8546ZM57.0705 29.0346L56.3005 28.3966L56.295 28.4032L56.2897 28.41L57.0705 29.0346ZM56.6745 32.2026L55.6802 32.3092L55.6815 32.3209L56.6745 32.2026ZM55.8465 33.9126L54.9783 34.4088L54.9864 34.4229L54.9949 34.4367L55.8465 33.9126ZM55.5945 30.7626L56.5916 30.686L56.5907 30.6745L56.5896 30.6631L55.5945 30.7626ZM55.5225 29.8446L54.5251 29.9159L54.5252 29.9176L55.5225 29.8446ZM55.5045 28.3326L56.5034 28.3802L56.5038 28.3716L56.5041 28.3629L55.5045 28.3326ZM55.5225 27.7386L54.8154 27.0315L54.535 27.312L54.523 27.7084L55.5225 27.7386ZM56.0985 27.8826L55.2041 28.3299L55.2238 28.3692L55.2469 28.4067L56.0985 27.8826ZM56.2425 28.6026H55.2425V32.3371L57.1087 29.1024L56.2425 28.6026ZM57.0345 27.7566L56.448 26.9467V26.9467L57.0345 27.7566ZM59.7705 27.7926L59.2321 28.6353L59.2457 28.644L59.2595 28.6522L59.7705 27.7926ZM60.9765 29.0886L60.119 29.6031L61.015 31.0964L61.8531 29.5699L60.9765 29.0886ZM62.4885 27.5226L61.9545 26.6771L61.9478 26.6815L62.4885 27.5226ZM66.4485 27.7206L65.6949 28.3781L65.7029 28.387L66.4485 27.7206ZM67.5465 29.7546L66.5855 30.0313L66.5895 30.0447L67.5465 29.7546ZM67.7445 33.6786L66.7631 33.4866L66.7611 33.497L66.7593 33.5073L67.7445 33.6786ZM67.0605 34.5066V33.5066C67.0443 33.5066 67.1277 33.5022 67.2507 33.5568C67.401 33.6237 67.5822 33.7697 67.6729 34.0115L66.7365 34.3626L65.8002 34.7138C66.0745 35.4451 66.8077 35.5066 67.0605 35.5066V34.5066ZM66.7365 34.3626L67.6852 34.0464C67.6968 34.081 67.6942 34.088 67.6899 34.0497C67.6861 34.0149 67.6825 33.9588 67.6825 33.8766H66.6825H65.6825C65.6825 34.1218 65.6997 34.4145 65.7878 34.6789L66.7365 34.3626ZM66.6825 33.8766L67.6725 34.0181C67.6927 33.8766 67.7005 33.7319 67.7005 33.5886H66.7005H65.7005C65.7005 33.6614 65.6964 33.7087 65.6926 33.7352L66.6825 33.8766ZM66.7005 33.5886H67.7005C67.7005 33.5441 67.7017 33.5147 67.7028 33.4977C67.7034 33.4895 67.7037 33.4867 67.7035 33.4884C67.7034 33.4898 67.7022 33.4992 67.6991 33.5148L66.7185 33.3186L65.7379 33.1225C65.706 33.2825 65.7005 33.4528 65.7005 33.5886H66.7005ZM66.7185 33.3186L67.7108 33.4427C67.7873 32.8305 67.8265 32.2429 67.8265 31.6806H66.8265H65.8265C65.8265 32.1504 65.7937 32.6548 65.7263 33.1946L66.7185 33.3186ZM66.8265 31.6806H67.8265C67.8265 30.4481 67.6223 29.3539 67.1066 28.4998L66.2505 29.0166L65.3945 29.5335C65.6468 29.9514 65.8265 30.6331 65.8265 31.6806H66.8265ZM66.2505 29.0166L67.1108 28.5068C66.5262 27.5203 65.5714 27.0446 64.4325 27.0446V28.0446V29.0446C64.9496 29.0446 65.2069 29.217 65.3902 29.5264L66.2505 29.0166ZM64.4325 28.0446V27.0446C63.8038 27.0446 63.1956 27.2031 62.6173 27.4922L63.0645 28.3866L63.5117 29.2811C63.8455 29.1142 64.1493 29.0446 64.4325 29.0446V28.0446ZM63.0645 28.3866L62.6077 27.4971C62.0631 27.7768 61.5898 28.1356 61.2073 28.5819L61.9665 29.2326L62.7258 29.8834C62.9193 29.6577 63.178 29.4525 63.5213 29.2762L63.0645 28.3866ZM61.9665 29.2326L61.1938 28.5979C60.8505 29.0158 60.5525 29.5428 60.5525 30.1506H61.5525H62.5525C62.5525 30.1816 62.5446 30.1764 62.5676 30.1253C62.5915 30.0722 62.6417 29.9862 62.7393 29.8674L61.9665 29.2326ZM61.5525 30.1506L60.5671 30.3206C60.637 30.7263 60.7581 31.1971 60.9212 31.7243L61.8765 31.4286L62.8318 31.133C62.683 30.6522 62.588 30.271 62.538 29.9807L61.5525 30.1506ZM61.8765 31.4286L60.8959 31.6248C60.9161 31.7255 60.9756 31.9521 61.0549 32.2466L62.0205 31.9866L62.9861 31.7267C62.9445 31.5721 62.9126 31.4514 62.8898 31.3633C62.8644 31.2649 62.8567 31.2307 62.8571 31.2325L61.8765 31.4286ZM62.0205 31.9866L61.0648 32.2807C61.1396 32.524 61.1645 32.7047 61.1645 32.8326H62.1645H63.1645C63.1645 32.4566 63.0935 32.0733 62.9763 31.6926L62.0205 31.9866ZM62.1645 32.8326L61.1659 32.8852L61.1839 33.2272L62.1825 33.1746L63.1811 33.1221L63.1631 32.7801L62.1645 32.8326ZM62.1825 33.1746H61.1825C61.1825 33.1165 61.1977 32.8892 61.4034 32.6835C61.6091 32.4779 61.8364 32.4626 61.8945 32.4626V33.4626V34.4626C62.1447 34.4626 62.516 34.3994 62.8176 34.0978C63.1193 33.7961 63.1825 33.4248 63.1825 33.1746H62.1825ZM61.8945 33.4626V32.4626C61.9451 32.4626 62.0015 32.4713 62.0579 32.4914C62.1138 32.5113 62.1563 32.5376 62.1849 32.5602C62.237 32.6012 62.2309 32.6193 62.195 32.5474L61.3005 32.9946L60.4061 33.4419C60.6446 33.9189 61.1143 34.4626 61.8945 34.4626V33.4626ZM61.3005 32.9946L62.2085 32.5756C62.1006 32.3419 61.956 31.9216 61.7793 31.2735L60.8145 31.5366L59.8498 31.7998C60.033 32.4717 60.2124 33.0234 60.3926 33.4137L61.3005 32.9946ZM60.8145 31.5366L61.778 31.269C61.5925 30.601 61.4074 30.0292 61.221 29.5633L60.2925 29.9346L59.3641 30.306C59.5137 30.6801 59.6766 31.1763 59.851 31.8043L60.8145 31.5366ZM60.2925 29.9346L61.221 29.5633C61.0095 29.0344 60.7145 28.5627 60.3299 28.1621L59.6085 28.8546L58.8871 29.5472C59.0786 29.7466 59.2396 29.9949 59.3641 30.306L60.2925 29.9346ZM59.6085 28.8546L60.3299 28.1621C59.8396 27.6513 59.2063 27.4046 58.5105 27.4046V28.4046V29.4046C58.7028 29.4046 58.8015 29.4579 58.8871 29.5472L59.6085 28.8546ZM58.5105 28.4046V27.4046C57.6417 27.4046 56.8632 27.7176 56.3005 28.3966L57.0705 29.0346L57.8406 29.6727C57.9739 29.5117 58.1553 29.4046 58.5105 29.4046V28.4046ZM57.0705 29.0346L56.2897 28.41C55.7925 29.0314 55.5665 29.7766 55.5665 30.5826H56.5665H57.5665C57.5665 30.1647 57.6766 29.8779 57.8514 29.6593L57.0705 29.0346ZM56.5665 30.5826H55.5665C55.5665 31.0417 55.6065 31.6215 55.6802 32.3092L56.6745 32.2026L57.6688 32.0961C57.5985 31.4398 57.5665 30.9396 57.5665 30.5826H56.5665ZM56.6745 32.2026L55.6815 32.3209C55.7386 32.8001 55.7645 33.1905 55.7645 33.4986H56.7645H57.7645C57.7645 33.0868 57.7305 32.6131 57.6675 32.0844L56.6745 32.2026ZM56.7645 33.4986H55.7645C55.7645 33.5721 55.7603 33.6156 55.7573 33.6356C55.756 33.6448 55.7556 33.6443 55.7578 33.6359C55.76 33.6277 55.7659 33.6073 55.7787 33.5785L56.6925 33.9846L57.6063 34.3908C57.7405 34.089 57.7645 33.7577 57.7645 33.4986H56.7645ZM56.6925 33.9846L55.7787 33.5785C55.8587 33.3984 55.9995 33.2704 56.1429 33.2024C56.206 33.1725 56.2589 33.1591 56.2925 33.153C56.3259 33.1468 56.3468 33.1466 56.3505 33.1466V34.1466V35.1466C56.6915 35.1466 57.3205 35.0339 57.6063 34.3908L56.6925 33.9846ZM56.3505 34.1466V33.1466C56.3347 33.1466 56.3848 33.1436 56.4656 33.1811C56.5575 33.2238 56.6421 33.2975 56.6982 33.3885L55.8465 33.9126L54.9949 34.4367C55.3288 34.9793 55.8852 35.1466 56.3505 35.1466V34.1466ZM55.8465 33.9126L56.7148 33.4165C56.7362 33.454 56.7305 33.4612 56.7209 33.4105C56.7116 33.3617 56.7025 33.28 56.7025 33.1566H55.7025H54.7025C54.7025 33.5551 54.7537 34.0158 54.9783 34.4088L55.8465 33.9126ZM55.7025 33.1566H56.7025C56.7025 32.4629 56.6648 31.6378 56.5916 30.686L55.5945 30.7626L54.5975 30.8393C54.6683 31.7595 54.7025 32.5304 54.7025 33.1566H55.7025ZM55.5945 30.7626L56.5896 30.6631C56.5792 30.5594 56.5562 30.2688 56.5199 29.7717L55.5225 29.8446L54.5252 29.9176C54.5608 30.4045 54.5859 30.7258 54.5995 30.8622L55.5945 30.7626ZM55.5225 29.8446L56.52 29.7734C56.4868 29.3089 56.4813 28.8446 56.5034 28.3802L55.5045 28.3326L54.5057 28.2851C54.4798 28.8287 54.4862 29.3724 54.5251 29.9159L55.5225 29.8446ZM55.5045 28.3326L56.5041 28.3629L56.5221 27.7689L55.5225 27.7386L54.523 27.7084L54.505 28.3024L55.5045 28.3326ZM55.5225 27.7386L56.2296 28.4458C56.1859 28.4895 56.121 28.5393 56.0334 28.5768C55.9447 28.6148 55.855 28.6306 55.7745 28.6306V27.6306V26.6306C55.396 26.6306 55.0623 26.7846 54.8154 27.0315L55.5225 27.7386ZM55.7745 27.6306V28.6306C55.6096 28.6306 55.4552 28.5722 55.3406 28.483C55.2413 28.4058 55.2054 28.3324 55.2041 28.3299L56.0985 27.8826L56.993 27.4354C56.8213 27.0921 56.4388 26.6306 55.7745 26.6306V27.6306ZM56.0985 27.8826L55.2469 28.4067C55.2159 28.3563 55.2178 28.3352 55.2259 28.3758C55.2337 28.4143 55.2425 28.4867 55.2425 28.6026H56.2425H57.2425C57.2425 28.2172 57.1922 27.7518 56.9502 27.3586L56.0985 27.8826ZM56.2425 28.6026L57.1087 29.1024C57.2061 28.9335 57.3654 28.7517 57.621 28.5666L57.0345 27.7566L56.448 26.9467C56.0076 27.2656 55.6389 27.6478 55.3763 28.1029L56.2425 28.6026ZM57.0345 27.7566L57.621 28.5666C57.8197 28.4228 57.9839 28.3786 58.1325 28.3786V27.3786V26.3786C57.5131 26.3786 56.9454 26.5865 56.448 26.9467L57.0345 27.7566ZM58.1325 27.3786V28.3786C58.6559 28.3786 59.0012 28.4878 59.2321 28.6353L59.7705 27.7926L60.3089 26.95C59.6759 26.5455 58.9292 26.3786 58.1325 26.3786V27.3786ZM59.7705 27.7926L59.2595 28.6522C59.5197 28.807 59.8153 29.0969 60.119 29.6031L60.9765 29.0886L61.834 28.5742C61.4177 27.8803 60.9093 27.3063 60.2816 26.9331L59.7705 27.7926ZM60.9765 29.0886L61.8531 29.5699C62.098 29.1239 62.477 28.7188 63.0293 28.3638L62.4885 27.5226L61.9478 26.6815C61.156 27.1905 60.5271 27.8294 60.1 28.6074L60.9765 29.0886ZM62.4885 27.5226L63.0225 28.3681C63.567 28.0242 64.0862 27.8746 64.5945 27.8746V26.8746V25.8746C63.6628 25.8746 62.778 26.1571 61.9545 26.6772L62.4885 27.5226ZM64.5945 26.8746V27.8746C65.0477 27.8746 65.3916 28.0302 65.695 28.378L66.4485 27.7206L67.2021 27.0633C66.5215 26.2831 65.6294 25.8746 64.5945 25.8746V26.8746ZM66.4485 27.7206L65.7029 28.387C66.098 28.8291 66.3954 29.3706 66.5856 30.0313L67.5465 29.7546L68.5075 29.478C68.2417 28.5547 67.8071 27.7402 67.1942 27.0543L66.4485 27.7206ZM67.5465 29.7546L66.5895 30.0447C66.8073 30.7635 66.9065 31.3965 66.9065 31.9506H67.9065H68.9065C68.9065 31.1607 68.7657 30.3298 68.5036 29.4646L67.5465 29.7546ZM67.9065 31.9506H66.9065C66.9065 32.4905 66.858 33.0019 66.7631 33.4866L67.7445 33.6786L68.7259 33.8707C68.8471 33.2514 68.9065 32.6108 68.9065 31.9506H67.9065ZM67.7445 33.6786L66.7593 33.5073C66.744 33.5955 66.7273 33.649 66.7165 33.6765C66.7057 33.7041 66.706 33.6925 66.7306 33.6628C66.7579 33.6296 66.8074 33.5841 66.8809 33.5497C66.9542 33.5153 67.0197 33.5066 67.0605 33.5066V34.5066V35.5066C67.5369 35.5066 67.9673 35.306 68.2725 34.9365C68.5427 34.6094 68.6673 34.2092 68.7297 33.85L67.7445 33.6786ZM72.5211 33.8406L72.0834 34.7398L72.0905 34.7432L72.0976 34.7465L72.5211 33.8406ZM71.5131 30.3666L70.6728 29.8245L71.5131 30.3666ZM72.5751 29.4666L73.0131 30.3656L73.0223 30.3611L73.0315 30.3565L72.5751 29.4666ZM76.8411 29.5746L76.4221 30.4826L76.8411 29.5746ZM78.2991 30.6006L77.6187 31.3334L80.0106 33.5545L79.2733 30.3748L78.2991 30.6006ZM77.4351 28.4226L76.5835 28.9467L77.4351 28.4226ZM76.1391 26.9826L75.5424 27.7851L75.5539 27.7937L75.5657 27.8019L76.1391 26.9826ZM74.1411 26.5866L74.5125 27.5151L74.5273 27.5092L74.542 27.5028L74.1411 26.5866ZM73.4751 26.9106L72.9963 26.0328L72.9656 26.0495L72.9361 26.0684L73.4751 26.9106ZM72.6471 27.1446L71.8471 27.7446L71.9329 27.8589L72.0471 27.9446L72.6471 27.1446ZM73.2231 25.8666L72.7016 25.0133L72.691 25.02L73.2231 25.8666ZM74.7891 25.5066L74.8462 24.5083L74.8373 24.5078L74.8283 24.5074L74.7891 25.5066ZM77.0931 26.5866L76.3985 27.3061L76.405 27.3123L77.0931 26.5866ZM78.7311 29.0526L77.8034 29.426L77.8074 29.4357L78.7311 29.0526ZM79.3071 32.6166L79.2448 33.6147L80.2223 33.6758L80.3037 32.6997L79.3071 32.6166ZM78.7311 32.5806L77.8344 33.0232L78.0907 33.5426L78.6688 33.5787L78.7311 32.5806ZM76.9671 30.6186L76.479 31.4914L76.4877 31.4963L76.4966 31.501L76.9671 30.6186ZM72.8451 30.4386L72.2733 29.6182L72.8451 30.4386ZM73.0791 32.9766L73.5991 32.1224L73.0791 32.9766ZM76.3551 33.4086L76.5195 34.395L76.5394 34.3917L76.5591 34.3876L76.3551 33.4086ZM77.2551 33.1746L77.5492 34.1304L77.5603 34.127L77.5714 34.1233L77.2551 33.1746ZM79.2891 33.0126L78.793 33.8809L78.8171 33.8947L78.8419 33.9071L79.2891 33.0126ZM78.6951 33.7866L79.0387 34.7258L78.6951 33.7866ZM75.7791 34.4886V33.4886C74.6455 33.4886 73.7098 33.2925 72.9447 32.9348L72.5211 33.8406L72.0976 34.7465C73.1804 35.2528 74.4168 35.4886 75.7791 35.4886V34.4886ZM72.5211 33.8406L72.9589 32.9415C72.656 32.7941 72.4725 32.616 72.3567 32.4195C72.238 32.218 72.1531 31.9328 72.1531 31.5186H71.1531H70.1531C70.1531 32.2085 70.2963 32.8623 70.6335 33.4348C70.9738 34.0123 71.4743 34.4432 72.0834 34.7398L72.5211 33.8406ZM71.1531 31.5186H72.1531C72.1531 31.3371 72.205 31.1389 72.3534 30.9088L71.5131 30.3666L70.6728 29.8245C70.3413 30.3384 70.1531 30.9082 70.1531 31.5186H71.1531ZM71.5131 30.3666L72.3534 30.9088C72.4782 30.7154 72.6801 30.5279 73.0131 30.3656L72.5751 29.4666L72.1372 28.5677C71.5342 28.8614 71.0281 29.2739 70.6728 29.8245L71.5131 30.3666ZM72.5751 29.4666L73.0315 30.3565C73.3245 30.2062 73.729 30.1066 74.2851 30.1066V29.1066V28.1066C73.4973 28.1066 72.7618 28.2471 72.1188 28.5768L72.5751 29.4666ZM74.2851 29.1066V30.1066C74.7737 30.1066 75.1647 30.1296 75.467 30.1699L75.5991 29.1786L75.7313 28.1874C75.3135 28.1317 74.8286 28.1066 74.2851 28.1066V29.1066ZM75.5991 29.1786L75.467 30.1699C75.6958 30.2004 76.0102 30.2925 76.4221 30.4826L76.8411 29.5746L77.2602 28.6667C76.7361 28.4248 76.2225 28.2529 75.7313 28.1874L75.5991 29.1786ZM76.8411 29.5746L76.4221 30.4826C76.7683 30.6424 77.1678 30.9148 77.6187 31.3334L78.2991 30.6006L78.9796 29.8679C78.4224 29.3505 77.85 28.9389 77.2602 28.6667L76.8411 29.5746ZM78.2991 30.6006L79.2733 30.3748C79.0607 29.4579 78.7357 28.6281 78.2868 27.8985L77.4351 28.4226L76.5835 28.9467C76.9025 29.4652 77.1536 30.0874 77.325 30.8265L78.2991 30.6006ZM77.4351 28.4226L78.2868 27.8986C77.8486 27.1864 77.3288 26.5948 76.7126 26.1634L76.1391 26.9826L75.5657 27.8019C75.9095 28.0425 76.2537 28.4109 76.5835 28.9467L77.4351 28.4226ZM76.1391 26.9826L76.7358 26.1802C76.1438 25.7399 75.4775 25.4606 74.7531 25.4606V26.4606V27.4606C74.9408 27.4606 75.1985 27.5294 75.5424 27.7851L76.1391 26.9826ZM74.7531 26.4606V25.4606C74.4035 25.4606 74.0626 25.5295 73.7403 25.6705L74.1411 26.5866L74.542 27.5028C74.6037 27.4758 74.6708 27.4606 74.7531 27.4606V26.4606ZM74.1411 26.5866L73.7697 25.6582C73.5387 25.7506 73.2784 25.8789 72.9963 26.0328L73.4751 26.9106L73.954 27.7885C74.1999 27.6544 74.3835 27.5667 74.5125 27.5151L74.1411 26.5866ZM73.4751 26.9106L72.9361 26.0684C72.8123 26.1476 72.7313 26.1895 72.6867 26.2088C72.6656 26.2179 72.6636 26.2172 72.6781 26.2134C72.6908 26.21 72.7376 26.1986 72.8091 26.1986V27.1986V28.1986C73.08 28.1986 73.3181 28.1148 73.4806 28.0445C73.658 27.9678 73.838 27.8657 74.0142 27.7529L73.4751 26.9106ZM72.8091 27.1986V26.1986C72.9655 26.1986 73.122 26.2508 73.2471 26.3446L72.6471 27.1446L72.0471 27.9446C72.2682 28.1105 72.5328 28.1986 72.8091 28.1986V27.1986ZM72.6471 27.1446L73.4471 26.5446C73.541 26.6697 73.5931 26.8263 73.5931 26.9826H72.5931H71.5931C71.5931 27.259 71.6813 27.5236 71.8471 27.7446L72.6471 27.1446ZM72.5931 26.9826H73.5931C73.5931 26.8932 73.6112 26.8534 73.6215 26.8352C73.6325 26.8156 73.6631 26.7712 73.7553 26.7133L73.2231 25.8666L72.691 25.02C71.9917 25.4596 71.5931 26.145 71.5931 26.9826H72.5931ZM73.2231 25.8666L73.7446 26.7199C73.9757 26.5787 74.2933 26.488 74.75 26.5059L74.7891 25.5066L74.8283 24.5074C74.061 24.4773 73.3346 24.6266 72.7017 25.0134L73.2231 25.8666ZM74.7891 25.5066L74.7321 26.505C75.2976 26.5373 75.8474 26.7739 76.3985 27.306L77.0931 26.5866L77.7877 25.8672C76.9469 25.0554 75.9607 24.572 74.8462 24.5083L74.7891 25.5066ZM77.0931 26.5866L76.405 27.3123C76.9862 27.8634 77.4554 28.561 77.8034 29.426L78.7311 29.0526L79.6588 28.6793C79.2149 27.5763 78.5921 26.6299 77.7812 25.861L77.0931 26.5866ZM78.7311 29.0526L77.8074 29.4357C78.1713 30.3132 78.3431 31.1494 78.3431 31.9506H79.3431H80.3431C80.3431 30.8559 80.107 29.7601 79.6549 28.6696L78.7311 29.0526ZM79.3431 31.9506H78.3431C78.3431 32.0648 78.3339 32.2542 78.3106 32.5336L79.3071 32.6166L80.3037 32.6997C80.3284 32.4031 80.3431 32.1485 80.3431 31.9506H79.3431ZM79.3071 32.6166L79.3695 31.6186L78.7935 31.5826L78.7311 32.5806L78.6688 33.5787L79.2448 33.6147L79.3071 32.6166ZM78.7311 32.5806L79.6279 32.1381C79.1038 31.0761 78.3857 30.2419 77.4377 29.7363L76.9671 30.6186L76.4966 31.501C76.9886 31.7634 77.4465 32.2372 77.8344 33.0232L78.7311 32.5806ZM76.9671 30.6186L77.4553 29.7459C76.6174 29.2772 75.7368 29.0246 74.8251 29.0246V30.0246V31.0246C75.3535 31.0246 75.9009 31.1681 76.479 31.4914L76.9671 30.6186ZM74.8251 30.0246V29.0246C73.8552 29.0246 72.9319 29.1592 72.2733 29.6182L72.8451 30.4386L73.4169 31.259C73.5503 31.1661 73.9471 31.0246 74.8251 31.0246V30.0246ZM72.8451 30.4386L72.2733 29.6182C71.5808 30.1009 71.2511 30.8256 71.2511 31.6446H72.2511H73.2511C73.2511 31.4077 73.3174 31.3284 73.4169 31.259L72.8451 30.4386ZM72.2511 31.6446H71.2511C71.2511 32.6105 71.769 33.3499 72.5592 33.8308L73.0791 32.9766L73.5991 32.1224C73.2853 31.9314 73.2511 31.7828 73.2511 31.6446H72.2511ZM73.0791 32.9766L72.5592 33.8308C73.3122 34.2892 74.2157 34.4806 75.2031 34.4806V33.4806V32.4806C74.4626 32.4806 73.9501 32.3361 73.5991 32.1224L73.0791 32.9766ZM75.2031 33.4806V34.4806C75.708 34.4806 76.1539 34.456 76.5195 34.395L76.3551 33.4086L76.1907 32.4223C75.9804 32.4573 75.6583 32.4806 75.2031 32.4806V33.4806ZM76.3551 33.4086L76.5591 34.3876C76.8806 34.3207 77.2107 34.2346 77.5492 34.1304L77.2551 33.1746L76.9611 32.2189C76.6756 32.3067 76.4057 32.3766 76.1512 32.4297L76.3551 33.4086ZM77.2551 33.1746L77.5714 34.1233C77.7944 34.049 77.9708 34.0028 78.1054 33.9775L77.9211 32.9946L77.7369 32.0118C77.4875 32.0585 77.2199 32.1323 76.9389 32.226L77.2551 33.1746ZM77.9211 32.9946L78.1054 33.9775C78.2136 33.9572 78.3919 33.9406 78.6591 33.9406V32.9406V31.9406C78.3264 31.9406 78.0127 31.96 77.7369 32.0118L77.9211 32.9946ZM78.6591 32.9406V33.9406C78.7317 33.9406 78.7928 33.942 78.8436 33.9442C78.8949 33.9464 78.9313 33.9495 78.9551 33.9522C78.9808 33.9551 78.9813 33.9565 78.9646 33.9524C78.9555 33.9502 78.9363 33.9451 78.91 33.9356C78.8846 33.9263 78.8429 33.9094 78.793 33.8809L79.2891 33.0126L79.7853 32.1444C79.5522 32.0112 79.2997 31.9785 79.1822 31.9651C79.0242 31.9471 78.8458 31.9406 78.6591 31.9406V32.9406ZM79.2891 33.0126L78.8419 33.9071C78.6611 33.8167 78.5434 33.6708 78.4833 33.5358C78.4318 33.4199 78.4331 33.3379 78.4331 33.3366H79.4331H80.4331C80.4331 33.0246 80.3396 32.4198 79.7364 32.1182L79.2891 33.0126ZM79.4331 33.3366H78.4331C78.4331 33.0151 78.5956 32.816 78.6478 32.7588C78.7068 32.694 78.7495 32.6723 78.728 32.6854C78.6891 32.7091 78.5772 32.765 78.3516 32.8475L78.6951 33.7866L79.0387 34.7258C79.3051 34.6283 79.5622 34.5192 79.7692 34.3929C79.8708 34.331 80.0057 34.238 80.1262 34.1058C80.2399 33.981 80.4331 33.7182 80.4331 33.3366H79.4331ZM78.6951 33.7866L78.3516 32.8475C77.9035 33.0114 77.3907 33.1626 76.8101 33.2992L77.0391 34.2726L77.2682 35.2461C77.9116 35.0947 78.5027 34.9219 79.0387 34.7258L78.6951 33.7866ZM77.0391 34.2726L76.8101 33.2992C76.1858 33.4461 75.8743 33.4886 75.7791 33.4886V34.4886V35.4886C76.14 35.4886 76.6685 35.3872 77.2682 35.2461L77.0391 34.2726ZM83.2138 33.3006L82.2344 33.5023L82.235 33.5052L83.2138 33.3006ZM82.8898 31.1946L83.8865 31.1133L82.8898 31.1946ZM82.6918 28.4046L81.6935 28.4634L81.694 28.4705L82.6918 28.4046ZM82.7638 26.7666L81.8559 26.3476L81.8422 26.3772L81.8305 26.4077L82.7638 26.7666ZM83.4118 26.6226L82.7717 27.3909L82.8393 27.4472L82.9157 27.4909L83.4118 26.6226ZM83.6278 26.8746L84.6275 26.8996L84.6338 26.6504L84.5223 26.4274L83.6278 26.8746ZM83.6098 27.5946L82.6102 27.5697L82.6098 27.5821V27.5946H83.6098ZM83.7178 29.7726L82.7233 29.8773L82.7242 29.8859L82.7253 29.8945L83.7178 29.7726ZM84.0958 32.5266L83.1063 32.671L83.1094 32.6924L83.1135 32.7138L84.0958 32.5266ZM84.2938 33.7686L83.3 33.8791L83.3017 33.8946L83.3039 33.9101L84.2938 33.7686ZM84.2038 34.2726L85.0843 34.7467L85.0915 34.7334L85.0983 34.7199L84.2038 34.2726ZM83.4298 24.6066V25.6066H83.6848L83.9087 25.4845L83.4298 24.6066ZM82.8358 24.3006L81.9739 24.8077L81.9847 24.826L81.9963 24.8439L82.8358 24.3006ZM82.6738 23.2566L83.6544 23.4528L83.68 23.3247L83.6719 23.1943L82.6738 23.2566ZM83.5018 23.0946L83.0546 23.9891L83.0918 24.0077L83.1305 24.0231L83.5018 23.0946ZM83.6638 23.2566L83.2166 22.3622L82.4046 22.7682L82.7305 23.6156L83.6638 23.2566ZM83.7358 24.3726L84.4951 25.0234L84.5163 24.9987L84.5358 24.9726L83.7358 24.3726ZM83.8798 34.5066V33.5066C84.0749 33.5066 84.2252 33.5838 84.3111 33.6532C84.3833 33.7114 84.3997 33.7543 84.3817 33.7217C84.3663 33.6938 84.3374 33.6316 84.3015 33.5206C84.2663 33.4119 84.2294 33.2718 84.1927 33.0961L83.2138 33.3006L82.235 33.5052C82.326 33.9408 82.448 34.3572 82.631 34.6886C82.7956 34.9867 83.1804 35.5066 83.8798 35.5066V34.5066ZM83.2138 33.3006L84.1933 33.099C84.0304 32.3079 83.9302 31.6482 83.8865 31.1133L82.8898 31.1946L81.8932 31.276C81.9455 31.9171 82.0612 32.6614 82.2344 33.5023L83.2138 33.3006ZM82.8898 31.1946L83.8865 31.1133C83.8392 30.5335 83.7736 29.6101 83.6897 28.3388L82.6918 28.4046L81.694 28.4705C81.7781 29.7432 81.8445 30.6798 81.8932 31.276L82.8898 31.1946ZM82.6918 28.4046L83.6901 28.3459C83.6797 28.1693 83.6738 27.9269 83.6738 27.6126H82.6738H81.6738C81.6738 27.9464 81.68 28.232 81.6936 28.4634L82.6918 28.4046ZM82.6738 27.6126H83.6738C83.6738 27.4301 83.6807 27.2953 83.6907 27.2009C83.702 27.0954 83.7127 27.0852 83.6972 27.1256L82.7638 26.7666L81.8305 26.4077C81.6966 26.7558 81.6738 27.209 81.6738 27.6126H82.6738ZM82.7638 26.7666L83.6718 27.1857C83.6505 27.2319 83.5924 27.3314 83.468 27.4165C83.3377 27.5056 83.2024 27.5326 83.1058 27.5326V26.5326V25.5326C82.8533 25.5326 82.583 25.5987 82.3387 25.7658C82.1003 25.9289 81.9492 26.1453 81.8559 26.3476L82.7638 26.7666ZM83.1058 26.5326V27.5326C83.0982 27.5326 82.9405 27.5315 82.7717 27.3909L83.4118 26.6226L84.052 25.8544C83.7392 25.5937 83.3775 25.5326 83.1058 25.5326V26.5326ZM83.4118 26.6226L82.9157 27.4909C82.7738 27.4098 82.7287 27.3124 82.7334 27.3219L83.6278 26.8746L84.5223 26.4274C84.407 26.1969 84.2179 25.9315 83.908 25.7544L83.4118 26.6226ZM83.6278 26.8746L82.6282 26.8497L82.6102 27.5697L83.6098 27.5946L84.6095 27.6196L84.6275 26.8996L83.6278 26.8746ZM83.6098 27.5946H82.6098C82.6098 28.3936 82.6473 29.1548 82.7233 29.8773L83.7178 29.7726L84.7123 29.668C84.6444 29.0225 84.6098 28.3316 84.6098 27.5946H83.6098ZM83.7178 29.7726L82.7253 29.8945C82.8106 30.5894 82.9379 31.5158 83.1063 32.671L84.0958 32.5266L85.0854 32.3823C84.9178 31.2335 84.7931 30.3239 84.7104 29.6508L83.7178 29.7726ZM84.0958 32.5266L83.1135 32.7138C83.2071 33.205 83.2679 33.591 83.3 33.8791L84.2938 33.7686L85.2877 33.6582C85.2477 33.2983 85.1766 32.8563 85.0782 32.3395L84.0958 32.5266ZM84.2938 33.7686L83.3039 33.9101C83.3008 33.8881 83.3013 33.865 83.3049 33.8449C83.3084 33.8256 83.3128 33.8186 83.3094 33.8254L84.2038 34.2726L85.0983 34.7199C85.2631 34.3902 85.3396 34.0179 85.2838 33.6272L84.2938 33.7686ZM84.2038 34.2726L83.3234 33.7985C83.3304 33.7854 83.3724 33.7111 83.4743 33.6375C83.5891 33.5546 83.7335 33.5066 83.8798 33.5066V34.5066V35.5066C84.5049 35.5066 84.8946 35.0991 85.0843 34.7467L84.2038 34.2726ZM83.4298 24.6066V23.6066C83.4278 23.6066 83.4747 23.6068 83.5413 23.6412C83.6114 23.6773 83.6554 23.7265 83.6754 23.7574L82.8358 24.3006L81.9963 24.8439C82.3308 25.3608 82.8616 25.6066 83.4298 25.6066V24.6066ZM82.8358 24.3006L83.6978 23.7936C83.6893 23.7793 83.6558 23.7133 83.6558 23.5446H82.6558H81.6558C81.6558 23.9759 81.7423 24.414 81.9739 24.8077L82.8358 24.3006ZM82.6558 23.5446H83.6558C83.6558 23.4924 83.6571 23.4572 83.6584 23.436C83.659 23.4258 83.6595 23.4218 83.6594 23.423C83.6593 23.4236 83.6581 23.4345 83.6544 23.4528L82.6738 23.2566L81.6933 23.0605C81.6606 23.224 81.6558 23.4043 81.6558 23.5446H82.6558ZM82.6738 23.2566L83.6719 23.1943C83.6782 23.2957 83.6571 23.5686 83.4102 23.7881C83.304 23.8824 83.1966 23.9274 83.1241 23.9482C83.0543 23.9681 83.0072 23.9686 82.9978 23.9686V22.9686V21.9686C82.7736 21.9686 82.3989 22.0111 82.0815 22.2932C81.7265 22.6087 81.6575 23.0256 81.6758 23.319L82.6738 23.2566ZM82.9978 22.9686V23.9686C82.9981 23.9686 82.9986 23.9687 82.9998 23.9688C83.001 23.9689 83.0034 23.9693 83.0073 23.9703C83.0148 23.9722 83.0304 23.977 83.0546 23.9891L83.5018 23.0946L83.9491 22.2002C83.6588 22.0551 83.3386 21.9686 82.9978 21.9686V22.9686ZM83.5018 23.0946L83.1305 24.0231C83.1547 24.0328 83.1545 24.034 83.1391 24.0257C83.136 24.0241 83.0582 23.9842 82.9702 23.8963C82.9063 23.8323 82.616 23.5185 82.7136 23.0302C82.8053 22.572 83.1588 22.3911 83.2166 22.3622L83.6638 23.2566L84.1111 24.1511C84.2048 24.1042 84.5787 23.9031 84.6748 23.4224C84.777 22.9115 84.4754 22.573 84.3844 22.482C84.1947 22.2923 83.9523 22.1978 83.8732 22.1662L83.5018 23.0946ZM83.6638 23.2566L82.7305 23.6156C82.7797 23.7436 82.81 23.8412 82.8273 23.9121C82.8454 23.9863 82.8438 24.0095 82.8438 23.9946H83.8438H84.8438C84.8438 23.6278 84.7301 23.2433 84.5972 22.8977L83.6638 23.2566ZM83.8438 23.9946H82.8438C82.8438 23.9993 82.8438 23.8954 82.9358 23.7726L83.7358 24.3726L84.5358 24.9726C84.7719 24.6579 84.8438 24.302 84.8438 23.9946H83.8438ZM83.7358 24.3726L82.9766 23.7219C82.9926 23.7032 83.002 23.6966 82.9979 23.6998C82.9937 23.703 82.9794 23.7132 82.951 23.7288L83.4298 24.6066L83.9087 25.4845C84.1114 25.374 84.3214 25.2261 84.4951 25.0234L83.7358 24.3726ZM88.6982 34.3626L87.718 34.5605L87.8496 35.2127L88.5021 35.3432L88.6982 34.3626ZM88.0862 29.7186L87.0889 29.7918L87.0894 29.7989L88.0862 29.7186ZM87.9422 22.2666L88.9407 22.3221L88.9422 22.2944V22.2666H87.9422ZM88.6622 22.1766L87.7678 22.6239L87.789 22.6664L87.8142 22.7066L88.6622 22.1766ZM88.8602 27.6126L87.8616 27.6648L87.8616 27.6652L88.8602 27.6126ZM89.1482 32.0406L90.1457 31.9702L90.1454 31.9651L89.1482 32.0406ZM89.2922 34.1106L90.2903 34.0483L90.29 34.0441L89.2922 34.1106ZM88.6982 34.3626L89.6785 34.1648C89.4244 32.9062 89.2248 31.3994 89.083 29.6384L88.0862 29.7186L87.0894 29.7989C87.2356 31.6139 87.444 33.2031 87.718 34.5605L88.6982 34.3626ZM88.0862 29.7186L89.0835 29.6455C88.9532 27.8681 88.8882 26.1525 88.8882 24.4986H87.8882H86.8882C86.8882 26.2048 86.9552 27.9692 87.0889 29.7918L88.0862 29.7186ZM87.8882 24.4986H88.8882C88.8882 23.6721 88.9059 22.9472 88.9407 22.3221L87.9422 22.2666L86.9438 22.2112C86.9065 22.8821 86.8882 23.6452 86.8882 24.4986H87.8882ZM87.9422 22.2666H88.9422C88.9422 22.3569 88.9243 22.4846 88.8545 22.6206C88.7829 22.7602 88.6802 22.8626 88.5772 22.9296C88.3988 23.0455 88.2586 23.0326 88.3022 23.0326V22.0326V21.0326C88.1058 21.0326 87.7856 21.0588 87.4872 21.2527C87.1144 21.4951 86.9422 21.8864 86.9422 22.2666H87.9422ZM88.3022 22.0326V23.0326C88.327 23.0326 88.2657 23.0375 88.1648 22.9971C88.0462 22.9497 87.8747 22.8377 87.7678 22.6239L88.6622 22.1766L89.5566 21.7294C89.2355 21.0871 88.5652 21.0326 88.3022 21.0326V22.0326ZM88.6622 22.1766L87.8142 22.7066C87.7873 22.6635 87.7714 22.6268 87.7625 22.6024C87.7535 22.5779 87.75 22.5618 87.7491 22.5573C87.7478 22.5504 87.7522 22.5702 87.7522 22.6266H88.7522H89.7522C89.7522 22.3649 89.7211 21.9841 89.5102 21.6466L88.6622 22.1766ZM88.7522 22.6266H87.7522C87.7522 24.5817 87.7884 26.262 87.8616 27.6648L88.8602 27.6126L89.8589 27.5605C89.788 26.2033 89.7522 24.5596 89.7522 22.6266H88.7522ZM88.8602 27.6126L87.8616 27.6652C87.9341 29.042 88.0306 30.5257 88.1511 32.1162L89.1482 32.0406L90.1454 31.9651C90.0258 30.3876 89.9304 28.9193 89.8588 27.5601L88.8602 27.6126ZM89.1482 32.0406L88.1507 32.1111C88.2227 33.1313 88.2706 33.8194 88.2944 34.1772L89.2922 34.1106L90.29 34.0441C90.2659 33.6819 90.2177 32.99 90.1457 31.9702L89.1482 32.0406ZM89.2922 34.1106L88.2942 34.173C88.2889 34.0889 88.3009 33.8229 88.5394 33.5984C88.7525 33.3978 88.9732 33.3986 88.9862 33.3986V34.3986V35.3986C89.2152 35.3986 89.5949 35.3515 89.9101 35.0548C90.2505 34.7344 90.3075 34.3243 90.2903 34.0483L89.2922 34.1106ZM88.9862 34.3986V33.3986C89.003 33.3986 89.0041 33.3998 88.9843 33.3974C88.9657 33.3951 88.9364 33.3905 88.8943 33.3821L88.6982 34.3626L88.5021 35.3432C88.6486 35.3725 88.8184 35.3986 88.9862 35.3986V34.3986Z" fill="#3E9B76" mask="url(#path-3-outside-1_1_35)"/>
<defs>
<filter id="filter0_d_1_35" x="0" y="0" width="125.889" height="69.7374" filterUnits="userSpaceOnUse" color-interpolation-filters="sRGB">
<feFlood flood-opacity="0" result="BackgroundImageFix"/>
<feColorMatrix in="SourceAlpha" type="matrix" values="0 0 0 0 0 0 0 0 0 0 0 0 0 0 0 0 0 0 127 0" result="hardAlpha"/>
<feMorphology radius="2" operator="dilate" in="SourceAlpha" result="effect1_dropShadow_1_35"/>
<feOffset dx="1" dy="5"/>
<feGaussianBlur stdDeviation="6.5"/>
<feComposite in2="hardAlpha" operator="out"/>
<feColorMatrix type="matrix" values="0 0 0 0 0 0 0 0 0 0 0 0 0 0 0 0 0 0 0.25 0"/>
<feBlend mode="normal" in2="BackgroundImageFix" result="effect1_dropShadow_1_35"/>
<feBlend mode="normal" in="SourceGraphic" in2="effect1_dropShadow_1_35" result="shape"/>
</filter>
</defs>
</svg>
